<svg xmlns="http://www.w3.org/2000/svg" width="860" height="365" viewBox="0 0 860 365">
<style>
  text { font-family: Arial, "Noto Sans", sans-serif; fill: #25313b; }
  .title { font-size: 17px; font-weight: 700; }
  .label { font-size: 11px; fill: #374151; }
  .tick { font-size: 10px; fill: #4b5563; }
  .axis-title { font-size: 11px; fill: #374151; }
  .value { font-size: 11px; font-weight: 700; }
  .inside { font-size: 11px; font-weight: 700; fill: #25313b; text-anchor: middle; }
  .axis { stroke: #555; stroke-width: 1.1; }
  .grid { stroke: #e5e7eb; stroke-width: 1; }
</style>
<rect width="100%" height="100%" fill="white"/>
<text class="title" x="430.0" y="34" text-anchor="middle">Query throughput before and after decoupling</text><line class="grid" x1="147" y1="291.00" x2="766" y2="291.00"/><text class="tick" x="140" y="295.00" text-anchor="end">0</text><line class="grid" x1="147" y1="246.00" x2="766" y2="246.00"/><text class="tick" x="140" y="250.00" text-anchor="end">15k</text><line class="grid" x1="147" y1="201.00" x2="766" y2="201.00"/><text class="tick" x="140" y="205.00" text-anchor="end">30k</text><line class="grid" x1="147" y1="156.00" x2="766" y2="156.00"/><text class="tick" x="140" y="160.00" text-anchor="end">45k</text><line class="grid" x1="147" y1="111.00" x2="766" y2="111.00"/><text class="tick" x="140" y="115.00" text-anchor="end">60k</text><line class="grid" x1="147" y1="66.00" x2="766" y2="66.00"/><text class="tick" x="140" y="70.00" text-anchor="end">75k</text><line class="axis" x1="147" y1="66" x2="147" y2="291"/><line class="axis" x1="147" y1="291" x2="766" y2="291"/><text class="axis-title" x="97" y="178.5" text-anchor="middle" transform="rotate(-90 97 178.5)">Query throughput (QPS)</text><rect x="274.8" y="105.68" width="54" height="185.32" fill="#b8c4d8" stroke="white" stroke-width="1"/><text class="value" x="301.8" y="98.68" text-anchor="middle">61,773</text><text class="label" x="301.8" y="310" text-anchor="middle">Late-Issue</text><rect x="584.2" y="80.09" width="54" height="210.91" fill="#8fc9b5" stroke="white" stroke-width="1"/><text class="value" x="611.2" y="78.00" text-anchor="middle">70,305</text><text class="label" x="611.2" y="310" text-anchor="middle">Exact-Early-Issue</text>
</svg>