<svg xmlns="http://www.w3.org/2000/svg" width="1050" height="420" viewBox="0 0 1050 420">
<style>
text { font-family: Arial, "Noto Sans", sans-serif; fill: #222; }
.title { font-size: 18px; font-weight: 700; }
.label { font-size: 14px; }
.small { font-size: 12px; fill: #555; }
.value { font-size: 14px; font-weight: 700; }
.axis { stroke: #555; stroke-width: 1; }
.grid { stroke: #ddd; stroke-width: 1; }
</style><rect width="100%" height="100%" fill="white"/><text class="title" x="20" y="34">(a) Dynamic mixed-workload query throughput</text><rect x="50.0" y="144.2" width="92" height="180.8" fill="#7570b3"/><text class="value" x="96.0" y="136.2" text-anchor="middle">59141.9</text><text class="label" x="96.0" y="351" text-anchor="middle">Fixed</text><rect x="206.7" y="170.1" width="92" height="154.9" fill="#d95f02"/><text class="value" x="252.7" y="162.1" text-anchor="middle">50672.2</text><text class="label" x="252.7" y="351" text-anchor="middle">Header→N</text><rect x="363.3" y="120.7" width="92" height="204.3" fill="#1b9e77"/><text class="value" x="409.3" y="112.7" text-anchor="middle">66827.8</text><text class="label" x="409.3" y="351" text-anchor="middle">ClassExtent</text><text class="title" x="555" y="34">(b) Dynamic bytes per committed parent</text><rect x="585.0" y="239.7" width="92" height="85.3" fill="#999999"/><text class="value" x="631.0" y="231.7" text-anchor="middle">348.0 B</text><text class="label" x="631.0" y="351" text-anchor="middle">Oracle</text><rect x="702.5" y="120.7" width="92" height="204.3" fill="#7570b3"/><text class="value" x="748.5" y="112.7" text-anchor="middle">833.9 B</text><text class="label" x="748.5" y="351" text-anchor="middle">Fixed</text><rect x="820.0" y="239.8" width="92" height="85.2" fill="#d95f02"/><text class="value" x="866.0" y="231.8" text-anchor="middle">347.8 B</text><text class="label" x="866.0" y="351" text-anchor="middle">Header→N</text><rect x="937.5" y="232.5" width="92" height="92.5" fill="#1b9e77"/><text class="value" x="983.5" y="224.5" text-anchor="middle">377.3 B</text><text class="label" x="983.5" y="351" text-anchor="middle">ClassExtent</text>
<text class="small" x="525" y="383" text-anchor="middle">fixed update target: 500 op/s · attained: 1.000/1.000/1.000</text>
<text class="small" x="525" y="402" text-anchor="middle">ClassExtent fallback: 0.000% · dynamic access share: 1.536% · Oracle has no QPS bar</text>
</svg>